<svg width="20" height="20" viewBox="0 0 20 20" fill="none" xmlns="http://www.w3.org/2000/svg">
<path d="M9.83438 12.8344C9.63967 12.8348 9.45097 12.7669 9.30104 12.6427L4.30104 8.47604C4.13086 8.3346 4.02384 8.13134 4.00353 7.91098C3.98321 7.69062 4.05126 7.47122 4.19271 7.30104C4.33416 7.13086 4.53742 7.02384 4.75777 7.00353C4.97813 6.98321 5.19753 7.05126 5.36771 7.19271L9.83438 10.926L14.301 7.32604C14.3863 7.25682 14.4844 7.20513 14.5896 7.17394C14.6949 7.14274 14.8053 7.13266 14.9145 7.14428C15.0237 7.1559 15.1295 7.18898 15.2259 7.24162C15.3223 7.29427 15.4073 7.36544 15.476 7.45104C15.5524 7.53673 15.6102 7.63725 15.6458 7.74631C15.6815 7.85537 15.6942 7.97062 15.6833 8.08484C15.6723 8.19906 15.6379 8.30979 15.5822 8.41009C15.5264 8.51038 15.4506 8.59809 15.3594 8.66771L10.3594 12.6927C10.2051 12.7973 10.0203 12.8472 9.83438 12.8344V12.8344Z" fill="#9C9C9C"/>
</svg>
