<svg width="50" height="50" viewBox="0 0 50 50" fill="none" xmlns="http://www.w3.org/2000/svg">
<path d="M13.3333 44.5833H7.08333C6.5308 44.5833 6.00089 44.3638 5.61019 43.9731C5.21949 43.5824 5 43.0525 5 42.5V25.8333C5 25.2808 5.21949 24.7509 5.61019 24.3602C6.00089 23.9695 6.5308 23.75 7.08333 23.75H13.3333C13.8859 23.75 14.4158 23.9695 14.8065 24.3602C15.1972 24.7509 15.4167 25.2808 15.4167 25.8333V42.5C15.4167 43.0525 15.1972 43.5824 14.8065 43.9731C14.4158 44.3638 13.8859 44.5833 13.3333 44.5833ZM27.9167 44.5833H21.6667C21.1141 44.5833 20.5842 44.3638 20.1935 43.9731C19.8028 43.5824 19.5833 43.0525 19.5833 42.5V7.08333C19.5833 6.5308 19.8028 6.00089 20.1935 5.61019C20.5842 5.21949 21.1141 5 21.6667 5H27.9167C28.4692 5 28.9991 5.21949 29.3898 5.61019C29.7805 6.00089 30 6.5308 30 7.08333V42.5C30 43.0525 29.7805 43.5824 29.3898 43.9731C28.9991 44.3638 28.4692 44.5833 27.9167 44.5833ZM42.5 44.5833H36.25C35.6975 44.5833 35.1676 44.3638 34.7769 43.9731C34.3862 43.5824 34.1667 43.0525 34.1667 42.5V19.5833C34.1667 19.0308 34.3862 18.5009 34.7769 18.1102C35.1676 17.7195 35.6975 17.5 36.25 17.5H42.5C43.0525 17.5 43.5824 17.7195 43.9731 18.1102C44.3638 18.5009 44.5833 19.0308 44.5833 19.5833V42.5C44.5833 43.0525 44.3638 43.5824 43.9731 43.9731C43.5824 44.3638 43.0525 44.5833 42.5 44.5833Z" fill="#46AEFF"/>
</svg>
