<svg width="50" height="50" viewBox="0 0 50 50" fill="none" xmlns="http://www.w3.org/2000/svg">
<path d="M31.2449 20.8238C34.0081 20.9085 36.6247 22.0865 38.5199 24.0991C40.4152 26.1116 41.4341 28.7942 41.3528 31.5575C41.181 37.2786 36.555 41.8436 30.7782 41.6702C28.0151 41.5855 25.3984 40.4075 23.5032 38.395C21.6079 36.3824 20.5891 33.6998 20.6703 30.9365C20.6957 30.0917 20.8416 29.2617 21.069 28.4771C20.5555 28.4427 20.0753 28.2107 19.7292 27.8298C19.3831 27.4488 19.1981 26.9486 19.2131 26.4341L19.2967 23.6499L16.5125 23.5663C15.4148 23.5334 14.5506 22.6157 14.5835 21.5179L14.6671 18.7337L12.6784 18.674C11.94 18.6519 11.2407 18.3373 10.7342 17.7995C10.2277 17.2617 9.95567 16.5447 9.97783 15.8063L10.0972 11.8289C10.1194 11.0905 10.434 10.3911 10.9718 9.88465C11.5096 9.37819 12.2266 9.10612 12.965 9.12829L16.4206 9.23203C17.582 9.2669 18.6802 9.76167 19.4749 10.6072L29.0983 20.8231C29.1479 20.873 29.2087 20.9103 29.2757 20.9317C29.3427 20.9531 29.4139 20.958 29.4832 20.9461C30.0658 20.8543 30.6552 20.8134 31.2449 20.8238V20.8238ZM33.3462 35.6962C33.8736 35.712 34.3857 35.5177 34.7699 35.1559C35.154 34.7942 35.3788 34.2946 35.3946 33.7672C35.4104 33.2398 35.2161 32.7276 34.8543 32.3435C34.4926 31.9593 33.993 31.7346 33.4656 31.7188C32.9382 31.703 32.426 31.8973 32.0419 32.259C31.6577 32.6208 31.433 33.1203 31.4172 33.6478C31.4014 34.1752 31.5957 34.6873 31.9575 35.0715C32.3192 35.4556 32.8188 35.6803 33.3462 35.6962V35.6962Z" fill="#FF3232"/>
</svg>
