<svg width="26" height="26" viewBox="0 0 26 26" fill="none" xmlns="http://www.w3.org/2000/svg">
<path d="M12.1564 13.375C12.1564 13.6982 12.2848 14.0082 12.5134 14.2368C12.7419 14.4653 13.0519 14.5937 13.3751 14.5937C13.6984 14.5937 14.0084 14.4653 14.2369 14.2368C14.4655 14.0082 14.5939 13.6982 14.5939 13.375C14.5939 13.0518 14.4655 12.7418 14.2369 12.5132C14.0084 12.2847 13.6984 12.1562 13.3751 12.1562C13.0519 12.1562 12.7419 12.2847 12.5134 12.5132C12.2848 12.7418 12.1564 13.0518 12.1564 13.375ZM17.2345 13.375C17.2345 13.6982 17.3629 14.0082 17.5915 14.2368C17.82 14.4653 18.13 14.5937 18.4533 14.5937C18.7765 14.5937 19.0865 14.4653 19.3151 14.2368C19.5436 14.0082 19.672 13.6982 19.672 13.375C19.672 13.0518 19.5436 12.7418 19.3151 12.5132C19.0865 12.2847 18.7765 12.1562 18.4533 12.1562C18.13 12.1562 17.82 12.2847 17.5915 12.5132C17.3629 12.7418 17.2345 13.0518 17.2345 13.375ZM7.07827 13.375C7.07827 13.6982 7.20667 14.0082 7.43523 14.2368C7.66379 14.4653 7.97379 14.5937 8.29702 14.5937C8.62025 14.5937 8.93025 14.4653 9.15881 14.2368C9.38737 14.0082 9.51577 13.6982 9.51577 13.375C9.51577 13.0518 9.38737 12.7418 9.15881 12.5132C8.93025 12.2847 8.62025 12.1562 8.29702 12.1562C7.97379 12.1562 7.66379 12.2847 7.43523 12.5132C7.20667 12.7418 7.07827 13.0518 7.07827 13.375ZM23.8665 8.96719C23.2927 7.60371 22.4701 6.37988 21.4214 5.32871C20.3801 4.28362 19.144 3.45291 17.783 2.88359C16.3865 2.29707 14.9037 2 13.3751 2H13.3244C11.7857 2.00762 10.2953 2.3123 8.8937 2.91152C7.54433 3.48668 6.31976 4.31887 5.28823 5.36172C4.24975 6.41035 3.43471 7.6291 2.87104 8.9875C2.28706 10.3941 1.99253 11.8896 2.00014 13.4283C2.00876 15.1916 2.42592 16.9289 3.21889 18.5039V22.3633C3.21889 22.673 3.34195 22.9701 3.56098 23.1892C3.78002 23.4082 4.0771 23.5312 4.38686 23.5312H8.24878C9.82374 24.3242 11.5611 24.7414 13.3244 24.75H13.3777C14.8986 24.75 16.3738 24.4555 17.7626 23.8791C19.1168 23.3166 20.3483 22.4955 21.3884 21.4619C22.4371 20.4234 23.2623 19.2098 23.8386 17.8564C24.4378 16.4549 24.7425 14.9645 24.7501 13.4258C24.7578 11.8795 24.4582 10.3789 23.8665 8.96719ZM20.03 20.0883C18.2501 21.8504 15.8888 22.8203 13.3751 22.8203H13.332C11.8009 22.8127 10.28 22.4318 8.93686 21.7158L8.72358 21.6016H5.14858V18.0266L5.03432 17.8133C4.31831 16.4701 3.93745 14.9492 3.92983 13.4182C3.91968 10.8867 4.88706 8.51016 6.66186 6.72012C8.43413 4.93008 10.8031 3.93984 13.3345 3.92969H13.3777C14.6472 3.92969 15.8787 4.17598 17.039 4.66348C18.1714 5.13828 19.1871 5.82129 20.0605 6.69473C20.9314 7.56562 21.6169 8.58379 22.0917 9.71621C22.5843 10.8893 22.8306 12.1334 22.8255 13.4182C22.8103 15.9471 21.8175 18.316 20.03 20.0883Z" fill="#9C9C9C"/>
</svg>
