<svg width="40" height="40" viewBox="0 0 40 40" fill="none" xmlns="http://www.w3.org/2000/svg">
<g clip-path="url(#clip0_3_8)">
<path d="M38.3244 29.4199C36.477 32.9094 33.6452 35.7679 30.187 37.6342C26.7288 39.5004 22.7995 40.2906 18.896 39.9046C14.9926 39.5186 11.2902 37.974 8.25721 35.4659C5.22422 32.9579 2.99676 29.5991 1.85652 25.8144C0.71627 22.0296 0.714459 17.9888 1.85131 14.203C2.98816 10.4172 5.21261 7.05636 8.2434 4.54555C11.2741 2.03474 14.9751 0.486706 18.8782 0.0972077C22.7813 -0.292291 26.7113 0.494236 30.1712 2.35733L27.8228 6.79308C25.2329 5.3984 22.2909 4.80963 19.3691 5.10119C16.4474 5.39277 13.6769 6.55159 11.4081 8.43112C9.13935 10.3106 7.4742 12.8265 6.62318 15.6605C5.77216 18.4944 5.77351 21.5193 6.62707 24.3525C7.48064 27.1857 9.1481 29.7 11.4185 31.5775C13.689 33.455 16.4604 34.6113 19.3825 34.9002C22.3045 35.1891 25.2459 34.5976 27.8347 33.2006C30.4234 31.8035 32.5433 29.6637 33.9262 27.0516L38.3244 29.4199Z" fill="black"/>
<path d="M21.8566 30.3448C27.3328 30.3448 31.772 25.8677 31.772 20.3448C31.772 14.822 27.3328 10.3448 21.8566 10.3448C16.3805 10.3448 11.9412 14.822 11.9412 20.3448C11.9412 25.8677 16.3805 30.3448 21.8566 30.3448Z" fill="#4CC59A"/>
</g>
<defs>
<clipPath id="clip0_3_8">
<rect width="40" height="40" fill="white"/>
</clipPath>
</defs>
</svg>
