<svg width="50" height="50" viewBox="0 0 50 50" fill="none" xmlns="http://www.w3.org/2000/svg">
<path d="M36.5494 24.865C41.401 24.865 45.334 22.6566 45.334 19.9325C45.334 17.2084 41.401 15 36.5494 15C31.6977 15 27.7647 17.2084 27.7647 19.9325C27.7647 22.6566 31.6977 24.865 36.5494 24.865Z" fill="#FF864D"/>
<path fill-rule="evenodd" clip-rule="evenodd" d="M36.6808 27.7025C30.3978 27.7025 27.8962 25.1 27.8962 23.5925V30.05C27.8962 32.775 31.8294 34.98 36.6808 34.98C41.5373 34.98 45.4705 32.775 45.4705 30.05V23.7475C45.4705 25.2575 42.9664 27.7025 36.6808 27.7025V27.7025Z" fill="#FF864D"/>
<path fill-rule="evenodd" clip-rule="evenodd" d="M36.6808 37.68C31.0605 37.68 27.8962 35.1775 27.8962 33.67V40.0675C27.8962 42.7925 31.8294 45 36.6808 45C41.5373 45 45.4705 42.7925 45.4705 40.0675V33.5925C45.4705 35.1 42.3037 37.68 36.6808 37.68V37.68Z" fill="#FF864D"/>
<path d="M14.9583 14.865C20.4581 14.865 24.9166 12.6566 24.9166 9.9325C24.9166 7.20836 20.4581 5 14.9583 5C9.45848 5 5 7.20836 5 9.9325C5 12.6566 9.45848 14.865 14.9583 14.865Z" fill="#FF864D"/>
<path fill-rule="evenodd" clip-rule="evenodd" d="M15.2745 17.7025C8.15416 17.7025 5.31616 15.1 5.31616 13.5925V20.05C5.31616 22.775 9.77551 24.98 15.2745 24.98C20.7785 24.98 25.2353 22.775 25.2353 20.05V13.7475C25.2353 15.2575 22.3948 17.7025 15.2745 17.7025V17.7025Z" fill="#FF864D"/>
<path fill-rule="evenodd" clip-rule="evenodd" d="M15.2745 27.68C8.90287 27.68 5.31616 25.1775 5.31616 23.67V30.0675C5.31616 32.7925 9.77551 35 15.2745 35C20.7785 35 25.2353 32.7925 25.2353 30.0675V23.5925C25.2353 25.1 21.6435 27.68 15.2745 27.68V27.68Z" fill="#FF864D"/>
<path fill-rule="evenodd" clip-rule="evenodd" d="M15.2745 37.68C8.90287 37.68 5.31616 35.1775 5.31616 33.67V40.0675C5.31616 42.7925 9.77551 45 15.2745 45C20.7785 45 25.2353 42.7925 25.2353 40.0675V33.5925C25.2353 35.1 21.6435 37.68 15.2745 37.68V37.68Z" fill="#FF864D"/>
</svg>
