<svg width="26" height="26" viewBox="0 0 26 26" fill="none" xmlns="http://www.w3.org/2000/svg">
<path d="M19.5 9.1C19.5 7.26159 18.8153 5.49792 17.5966 4.19792C16.3768 2.89792 14.7225 2.16667 13 2.16667C11.2764 2.16667 9.62325 2.89684 8.40342 4.19792C7.18467 5.49792 6.5 7.26159 6.5 9.1C6.5 17.1893 3.25 19.5 3.25 19.5H22.75C22.75 19.5 19.5 17.1893 19.5 9.1Z" stroke="#9C9C9C" stroke-width="1.25" stroke-linecap="round" stroke-linejoin="round"/>
<path d="M14.8743 22.75C14.6841 23.0786 14.4108 23.3514 14.0818 23.5411C13.7529 23.7307 13.3798 23.8306 13.0001 23.8306C12.6204 23.8306 12.2474 23.7307 11.9185 23.5411C11.5895 23.3514 11.3162 23.0786 11.126 22.75" stroke="#9C9C9C" stroke-width="1.25" stroke-linecap="round" stroke-linejoin="round"/>
</svg>
