<svg width="50" height="50" viewBox="0 0 50 50" fill="none" xmlns="http://www.w3.org/2000/svg">
<path d="M40 15H8.75V13.75L36.25 11.55V13.75H40V10C40 7.25 37.7725 5.32 35.0525 5.7075L9.95 9.2925C7.2275 9.6825 5 12.25 5 15V40C5 41.3261 5.52678 42.5979 6.46447 43.5355C7.40215 44.4732 8.67392 45 10 45H40C41.3261 45 42.5978 44.4732 43.5355 43.5355C44.4732 42.5979 45 41.3261 45 40V20C45 18.6739 44.4732 17.4021 43.5355 16.4645C42.5978 15.5268 41.3261 15 40 15ZM36.25 32.515C35.7574 32.5148 35.2696 32.4176 34.8146 32.229C34.3595 32.0403 33.946 31.7639 33.5978 31.4154C33.2496 31.0669 32.9734 30.6533 32.7851 30.1981C32.5967 29.743 32.4998 29.2551 32.5 28.7625C32.5002 28.2699 32.5974 27.7821 32.786 27.3271C32.9747 26.872 33.2511 26.4586 33.5996 26.1103C33.948 25.7621 34.3617 25.4859 34.8169 25.2976C35.272 25.1092 35.7599 25.0123 36.2525 25.0125C37.2474 25.0128 38.2014 25.4084 38.9047 26.1121C39.6079 26.8158 40.0028 27.7701 40.0025 28.765C40.0022 29.7599 39.6066 30.7139 38.9029 31.4172C38.1992 32.1204 37.2449 32.5153 36.25 32.515Z" fill="#AE70FF"/>
</svg>
